<svg width="272" height="46" fill="none" xmlns="http://www.w3.org/2000/svg">
    <path
        d="M17.28 32.64h1.5v-1.5h-1.5v1.5zm-5.4 0v-1.5h-1.5v1.5h1.5zm0-13.28h-1.5v1.5h1.5v-1.5zm5.4 0v1.5h1.5v-1.5h-1.5zm0 11.78h-5.4v3h5.4v-3zm-6.9 1.5v1.6h3v-1.6h-3zm0 1.6c0 .302-.086.395-.096.405-.003.003-.084.095-.404.095v3c.96 0 1.879-.308 2.556-1.005.67-.69.944-1.597.944-2.495h-3zm-.5.5c-.32 0-.401-.092-.404-.095-.01-.01-.096-.103-.096-.405h-3c0 .898.274 1.805.944 2.495.677.697 1.597 1.005 2.556 1.005v-3zm-.5-.5V17.76h-3v16.48h3zm0-16.48c0-.302.086-.395.096-.405.003-.003.083-.095.404-.095v-3c-.96 0-1.879.308-2.556 1.005-.67.69-.944 1.597-.944 2.495h3zm.5-.5c.32 0 .401.092.404.095.01.01.096.103.096.405h3c0-.898-.274-1.805-.944-2.495-.677-.697-1.597-1.005-2.556-1.005v3zm.5.5v1.6h3v-1.6h-3zm1.5 3.1h5.4v-3h-5.4v3zm6.9-1.5v-1.6h-3v1.6h3zm0-1.6c0-2.55-.833-4.802-2.44-6.422-1.61-1.621-3.865-2.478-6.46-2.478v3c1.925 0 3.37.623 4.33 1.591.963.97 1.57 2.418 1.57 4.309h3zm-8.9-8.9c-2.595 0-4.85.857-6.46 2.479C1.813 12.959.98 15.21.98 17.76h3c0-1.89.607-3.338 1.57-4.309.96-.968 2.405-1.591 4.33-1.591v-3zm-8.9 8.9v16.48h3V17.76h-3zm0 16.48c0 2.55.833 4.802 2.44 6.421 1.61 1.622 3.865 2.479 6.46 2.479v-3c-1.925 0-3.37-.623-4.33-1.592-.963-.97-1.57-2.417-1.57-4.308h-3zm8.9 8.9c2.595 0 4.85-.857 6.46-2.479 1.607-1.62 2.44-3.872 2.44-6.421h-3c0 1.89-.607 3.338-1.57 4.308-.96.969-2.405 1.592-4.33 1.592v3zm8.9-8.9v-1.6h-3v1.6h3zM35.873 11h1.5V9.5h-1.5V11zm-15 0V9.5h-1.5V11h1.5zm0 5.4h-1.5v1.5h1.5v-1.5zm9.2 0l1.37.61.939-2.11h-2.31v1.5zm-9.2 20.68l-1.37-.61-.13.291v.319h1.5zm0 3.92h-1.5v1.5h1.5V41zm15 0v1.5h1.5V41h-1.5zm0-5.4h1.5v-1.5h-1.5v1.5zm-9.2 0l-1.37-.61-.94 2.11h2.31v-1.5zm9.2-20.68l1.37.61.13-.291v-.319h-1.5zm0-5.42h-15v3h15v-3zm-16.5 1.5v5.4h3V11h-3zm1.5 6.9h9.2v-3h-9.2v3zm7.83-2.11l-9.2 20.68 2.74 1.22 9.2-20.68-2.74-1.22zm-9.33 21.29V41h3v-3.92h-3zm1.5 5.42h15v-3h-15v3zm16.5-1.5v-5.4h-3V41h3zm-1.5-6.9h-9.2v3h9.2v-3zm-7.83 2.11l9.2-20.68-2.74-1.22-9.2 20.68 2.74 1.22zm9.33-21.29V11h-3v3.92h3zM53.413 11h1.5V9.5h-1.5V11zm-12.4 0V9.5h-1.5V11h1.5zm0 30h-1.5v1.5h1.5V41zm12.4 0v1.5h1.5V41h-1.5zm0-5.4h1.5v-1.5h-1.5v1.5zm-7 0h-1.5v1.5h1.5v-1.5zm0-7.8v-1.5h-1.5v1.5h1.5zm5.92 0v1.5h1.5v-1.5h-1.5zm0-5.4h1.5v-1.5h-1.5v1.5zm-5.92 0h-1.5v1.5h1.5v-1.5zm0-6v-1.5h-1.5v1.5h1.5zm7 0v1.5h1.5v-1.5h-1.5zm0-6.9h-12.4v3h12.4v-3zm-13.9 1.5v30h3V11h-3zm1.5 31.5h12.4v-3h-12.4v3zm13.9-1.5v-5.4h-3V41h3zm-1.5-6.9h-7v3h7v-3zm-5.5 1.5v-7.8h-3v7.8h3zm-1.5-6.3h5.92v-3h-5.92v3zm7.42-1.5v-5.4h-3v5.4h3zm-1.5-6.9h-5.92v3h5.92v-3zm-4.42 1.5v-6h-3v6h3zm-1.5-4.5h7v-3h-7v3zm8.5-1.5V11h-3v5.4h3zm8.651-7.72l-1.421-.48-.668 1.98h2.09v-1.5zm3.8 0v1.5h.872l.431-.757-1.303-.743zm3.92-6.88l1.303.743L73.865.3h-2.58v1.5zm-5.4 0V.3h-1.077l-.344 1.02 1.421.48zm1.64 17.56h-1.5v1.5h1.5v-1.5zm5.4 0v1.5h1.5v-1.5h-1.5zm-9.4 13.28h1.5v-1.5h-1.5v1.5zm-5.4 0v-1.5h-1.5v1.5h1.5zm5.44-22.46h3.8v-3h-3.8v3zm5.103-.757l3.92-6.88-2.606-1.486-3.92 6.88 2.606 1.486zM71.284.3h-5.4v3h5.4v-3zm-6.821 1.02l-2.32 6.88 2.842.96 2.32-6.88-2.842-.96zm1.061 41.82c2.595 0 4.85-.857 6.46-2.479 1.607-1.62 2.44-3.872 2.44-6.421h-3c0 1.89-.607 3.338-1.57 4.308-.96.969-2.405 1.592-4.33 1.592v3zm8.9-8.9v-3.08h-3v3.08h3zm0-3.08c0-2.55-.833-4.802-2.44-6.422-1.61-1.621-3.865-2.478-6.46-2.478v3c1.925 0 3.37.623 4.33 1.591.963.97 1.57 2.418 1.57 4.309h3zm-8.9-8.9c-.32 0-.401-.092-.404-.095-.01-.01-.096-.103-.096-.405h-3c0 .898.274 1.805.944 2.495.677.697 1.597 1.005 2.556 1.005v-3zm-.5-.5v-4h-3v4h3zm0-4c0-.302.086-.395.096-.405.003-.003.084-.095.404-.095v-3c-.96 0-1.879.308-2.556 1.005-.67.69-.944 1.597-.944 2.495h3zm.5-.5c.32 0 .401.092.404.095.01.01.096.103.096.405h3c0-.898-.274-1.805-.944-2.495-.677-.697-1.596-1.005-2.556-1.005v3zm.5.5v1.6h3v-1.6h-3zm1.5 3.1h5.4v-3h-5.4v3zm6.9-1.5v-1.6h-3v1.6h3zm0-1.6c0-2.55-.833-4.802-2.44-6.422-1.61-1.621-3.865-2.478-6.46-2.478v3c1.925 0 3.37.623 4.33 1.591.963.97 1.57 2.418 1.57 4.309h3zm-8.9-8.9c-2.595 0-4.85.857-6.46 2.479-1.607 1.62-2.44 3.872-2.44 6.421h3c0-1.89.607-3.338 1.57-4.309.96-.968 2.405-1.591 4.33-1.591v-3zm-8.9 8.9v4h3v-4h-3zm0 4c0 2.55.833 4.802 2.44 6.421 1.61 1.622 3.865 2.479 6.46 2.479v-3c-1.925 0-3.37-.623-4.33-1.591-.963-.97-1.57-2.418-1.57-4.309h-3zm8.9 8.9c.32 0 .401.092.404.095.01.01.096.103.096.405h3c0-.898-.274-1.805-.944-2.495-.677-.697-1.596-1.005-2.556-1.005v3zm.5.5v3.08h3v-3.08h-3zm0 3.08c0 .302-.086.395-.096.405-.003.003-.083.095-.404.095v3c.96 0 1.879-.308 2.556-1.005.67-.69.944-1.597.944-2.495h-3zm-.5.5c-.32 0-.401-.092-.404-.095-.01-.01-.096-.103-.096-.405h-3c0 .898.274 1.805.944 2.495.677.697 1.597 1.005 2.556 1.005v-3zm-.5-.5v-1.6h-3v1.6h3zm-1.5-3.1h-5.4v3h5.4v-3zm-6.9 1.5v1.6h3v-1.6h-3zm0 1.6c0 2.55.833 4.802 2.44 6.421 1.61 1.622 3.865 2.479 6.46 2.479v-3c-1.925 0-3.37-.623-4.33-1.592-.963-.97-1.57-2.417-1.57-4.308h-3zM83.718 8.68l-1.422-.48-.667 1.98h2.089v-1.5zm3.8 0v1.5h.871l.432-.757-1.303-.743zm3.92-6.88l1.303.743L94.02.3h-2.581v1.5zm-5.4 0V.3H84.96l-.345 1.02 1.422.48zm7 30.84h1.5v-1.5h-1.5v1.5zm-5.4 0v-1.5h-1.5v1.5h1.5zm0-13.28h-1.5v1.5h1.5v-1.5zm5.4 0v1.5h1.5v-1.5h-1.5zm-9.32-9.18h3.8v-3h-3.8v3zm5.103-.757l3.92-6.88-2.606-1.486-3.92 6.88 2.606 1.486zM91.438.3h-5.4v3h5.4v-3zm-6.822 1.02l-2.32 6.88 2.843.96 2.32-6.88-2.843-.96zm8.422 29.82h-5.4v3h5.4v-3zm-6.9 1.5v1.6h3v-1.6h-3zm0 1.6c0 .302-.086.395-.096.405-.003.003-.084.095-.404.095v3c.96 0 1.879-.308 2.556-1.005.67-.69.944-1.597.944-2.495h-3zm-.5.5c-.32 0-.401-.092-.404-.095-.01-.01-.096-.103-.096-.405h-3c0 .898.274 1.805.944 2.495.677.697 1.596 1.005 2.556 1.005v-3zm-.5-.5V17.76h-3v16.48h3zm0-16.48c0-.302.086-.395.096-.405.003-.003.083-.095.404-.095v-3c-.96 0-1.879.308-2.556 1.005-.67.69-.944 1.597-.944 2.495h3zm.5-.5c.32 0 .401.092.404.095.01.01.096.103.096.405h3c0-.898-.274-1.805-.944-2.495-.677-.697-1.597-1.005-2.556-1.005v3zm.5.5v1.6h3v-1.6h-3zm1.5 3.1h5.4v-3h-5.4v3zm6.9-1.5v-1.6h-3v1.6h3zm0-1.6c0-2.55-.833-4.802-2.44-6.422-1.61-1.621-3.865-2.478-6.46-2.478v3c1.925 0 3.37.623 4.33 1.591.963.97 1.57 2.418 1.57 4.309h3zm-8.9-8.9c-2.595 0-4.85.857-6.46 2.479-1.607 1.62-2.44 3.872-2.44 6.421h3c0-1.89.607-3.338 1.57-4.309.96-.968 2.405-1.591 4.33-1.591v-3zm-8.9 8.9v16.48h3V17.76h-3zm0 16.48c0 2.55.833 4.802 2.44 6.421 1.61 1.622 3.865 2.479 6.46 2.479v-3c-1.925 0-3.37-.623-4.33-1.592-.963-.97-1.57-2.417-1.57-4.308h-3zm8.9 8.9c2.595 0 4.85-.857 6.46-2.479 1.607-1.62 2.44-3.872 2.44-6.421h-3c0 1.89-.607 3.338-1.57 4.308-.96.969-2.405 1.592-4.33 1.592v3zm8.9-8.9v-1.6h-3v1.6h3zm3.333 9.56l-1.473-.287-.348 1.787h1.82v-1.5zm5 0v1.5h1.235l.237-1.213-1.472-.287zm1.6-8.2l1.472.287.349-1.787h-1.821v1.5zm-5 0v-1.5h-1.236l-.237 1.213 1.473.287zm-1.6 9.7h5v-3h-5v3zm6.472-1.213l1.6-8.2-2.945-.574-1.6 8.2 2.945.574zm.128-9.987h-5v3h5v-3zm-6.473 1.213l-1.6 8.2 2.945.574 1.6-8.2-2.945-.574zm20.925 5.967h-1.5v1.5h1.5v-1.5zM129.042 11h1.5V9.5h-1.5V11zm-5.399 0V9.5h-1.5V11h1.5zm-4.72 24.88v-1.5h-1.5v1.5h1.5zm0 6.9h2.72v-3h-2.72v3zm2.72 0c2.595 0 4.85-.857 6.459-2.479 1.608-1.62 2.44-3.872 2.44-6.421h-2.999c0 1.89-.608 3.338-1.57 4.308-.961.969-2.406 1.592-4.33 1.592v3zm8.899-8.9V11h-2.999v22.88h2.999zm-1.5-24.38h-5.399v3h5.399v-3zm-6.899 1.5v22.88h3V11h-3zm0 22.88c0 .302-.087.395-.096.405-.003.003-.084.095-.404.095v3c.959 0 1.878-.308 2.555-1.005.671-.69.945-1.597.945-2.495h-3zm-.5.5h-2.72v3h2.72v-3zm-4.22 1.5v5.4h3v-5.4h-3zM148.047 11h1.5V9.5h-1.5V11zm-12.4 0V9.5h-1.5V11h1.5zm0 30h-1.5v1.5h1.5V41zm12.4 0v1.5h1.5V41h-1.5zm0-5.4h1.5v-1.5h-1.5v1.5zm-7 0h-1.5v1.5h1.5v-1.5zm0-7.8v-1.5h-1.5v1.5h1.5zm5.92 0v1.5h1.5v-1.5h-1.5zm0-5.4h1.5v-1.5h-1.5v1.5zm-5.92 0h-1.5v1.5h1.5v-1.5zm0-6v-1.5h-1.5v1.5h1.5zm7 0v1.5h1.5v-1.5h-1.5zm0-6.9h-12.4v3h12.4v-3zm-13.9 1.5v30h3V11h-3zm1.5 31.5h12.4v-3h-12.4v3zm13.9-1.5v-5.4h-3V41h3zm-1.5-6.9h-7v3h7v-3zm-5.5 1.5v-7.8h-3v7.8h3zm-1.5-6.3h5.92v-3h-5.92v3zm7.42-1.5v-5.4h-3v5.4h3zm-1.5-6.9h-5.92v3h5.92v-3zm-4.42 1.5v-6h-3v6h3zm-1.5-4.5h7v-3h-7v3zm8.5-1.5V11h-3v5.4h3zm12.61 2.96h-1.5v1.5h1.5v-1.5zm5.4 0v1.5h1.5v-1.5h-1.5zm-9.4 13.28h1.5v-1.5h-1.5v1.5zm-5.4 0v-1.5h-1.5v1.5h1.5zm7.4 10.5c2.595 0 4.851-.857 6.46-2.479 1.607-1.62 2.44-3.872 2.44-6.421h-3c0 1.89-.607 3.338-1.57 4.308-.961.969-2.405 1.592-4.33 1.592v3zm8.9-8.9v-3.08h-3v3.08h3zm0-3.08c0-2.55-.833-4.802-2.44-6.422-1.609-1.621-3.865-2.478-6.46-2.478v3c1.925 0 3.369.623 4.33 1.591.963.97 1.57 2.418 1.57 4.309h3zm-8.9-8.9c-.321 0-.401-.092-.404-.095-.01-.01-.096-.103-.096-.405h-3c0 .898.274 1.805.944 2.495.677.697 1.596 1.005 2.556 1.005v-3zm-.5-.5v-4h-3v4h3zm0-4c0-.302.086-.395.096-.405.003-.003.083-.095.404-.095v-3c-.96 0-1.879.308-2.556 1.005-.67.69-.944 1.597-.944 2.495h3zm.5-.5c.32 0 .401.092.404.095.01.01.096.103.096.405h3c0-.898-.274-1.805-.944-2.495-.677-.697-1.597-1.005-2.556-1.005v3zm.5.5v1.6h3v-1.6h-3zm1.5 3.1h5.4v-3h-5.4v3zm6.9-1.5v-1.6h-3v1.6h3zm0-1.6c0-2.55-.833-4.802-2.44-6.422-1.609-1.621-3.865-2.478-6.46-2.478v3c1.925 0 3.369.623 4.33 1.591.963.97 1.57 2.418 1.57 4.309h3zm-8.9-8.9c-2.595 0-4.851.857-6.46 2.479-1.607 1.62-2.44 3.872-2.44 6.421h3c0-1.89.607-3.338 1.57-4.309.961-.968 2.405-1.591 4.33-1.591v-3zm-8.9 8.9v4h3v-4h-3zm0 4c0 2.55.833 4.802 2.44 6.421 1.609 1.622 3.865 2.479 6.46 2.479v-3c-1.925 0-3.369-.623-4.33-1.591-.963-.97-1.57-2.418-1.57-4.309h-3zm8.9 8.9c.32 0 .401.092.404.095.01.01.096.103.096.405h3c0-.898-.274-1.805-.944-2.495-.677-.697-1.597-1.005-2.556-1.005v3zm.5.5v3.08h3v-3.08h-3zm0 3.08c0 .302-.086.395-.096.405-.003.003-.084.095-.404.095v3c.959 0 1.879-.308 2.556-1.005.67-.69.944-1.597.944-2.495h-3zm-.5.5c-.321 0-.401-.092-.404-.095-.01-.01-.096-.103-.096-.405h-3c0 .898.274 1.805.944 2.495.677.697 1.596 1.005 2.556 1.005v-3zm-.5-.5v-1.6h-3v1.6h3zm-1.5-3.1h-5.4v3h5.4v-3zm-6.9 1.5v1.6h3v-1.6h-3zm0 1.6c0 2.55.833 4.802 2.44 6.421 1.609 1.622 3.865 2.479 6.46 2.479v-3c-1.925 0-3.369-.623-4.33-1.592-.963-.97-1.57-2.417-1.57-4.308h-3zM175.191 41h-1.5v1.5h1.5V41zm5.4 0v1.5h1.5V41h-1.5zm0-24.6v-1.5h-1.5v1.5h1.5zm4.4 0v1.5h1.5v-1.5h-1.5zm0-5.4h1.5V9.5h-1.5V11zm-14.2 0V9.5h-1.5V11h1.5zm0 5.4h-1.5v1.5h1.5v-1.5zm4.4 0h1.5v-1.5h-1.5v1.5zm0 26.1h5.4v-3h-5.4v3zm6.9-1.5V16.4h-3V41h3zm-1.5-23.1h4.4v-3h-4.4v3zm5.9-1.5V11h-3v5.4h3zm-1.5-6.9h-14.2v3h14.2v-3zm-15.7 1.5v5.4h3V11h-3zm1.5 6.9h4.4v-3h-4.4v3zm2.9-1.5V41h3V16.4h-3zm28.02-5.4h1.5V9.5h-1.5V11zm-12.4 0V9.5h-1.5V11h1.5zm0 30h-1.5v1.5h1.5V41zm12.4 0v1.5h1.5V41h-1.5zm0-5.4h1.5v-1.5h-1.5v1.5zm-7 0h-1.5v1.5h1.5v-1.5zm0-7.8v-1.5h-1.5v1.5h1.5zm5.92 0v1.5h1.5v-1.5h-1.5zm0-5.4h1.5v-1.5h-1.5v1.5zm-5.92 0h-1.5v1.5h1.5v-1.5zm0-6v-1.5h-1.5v1.5h1.5zm7 0v1.5h1.5v-1.5h-1.5zm0-6.9h-12.4v3h12.4v-3zm-13.9 1.5v30h3V11h-3zm1.5 31.5h12.4v-3h-12.4v3zm13.9-1.5v-5.4h-3V41h3zm-1.5-6.9h-7v3h7v-3zm-5.5 1.5v-7.8h-3v7.8h3zm-1.5-6.3h5.92v-3h-5.92v3zm7.42-1.5v-5.4h-3v5.4h3zm-1.5-6.9h-5.92v3h5.92v-3zm-4.42 1.5v-6h-3v6h3zm-1.5-4.5h7v-3h-7v3zm8.5-1.5V11h-3v5.4h3zm8.65-7.72l-1.421-.48-.668 1.98h2.089v-1.5zm3.8 0v1.5h.872l.431-.757-1.303-.743zm3.92-6.88l1.303.743L222.162.3h-2.581v1.5zm-5.4 0V.3h-1.077l-.344 1.02 1.421.48zm1.64 17.56h-1.5v1.5h1.5v-1.5zm5.4 0v1.5h1.5v-1.5h-1.5zm-9.4 13.28h1.5v-1.5h-1.5v1.5zm-5.4 0v-1.5h-1.5v1.5h1.5zm5.44-22.46h3.8v-3h-3.8v3zm5.103-.757l3.92-6.88-2.606-1.486-3.92 6.88 2.606 1.486zM219.581.3h-5.4v3h5.4v-3zm-6.821 1.02l-2.32 6.88 2.842.96 2.32-6.88-2.842-.96zm1.061 41.82c2.595 0 4.851-.857 6.46-2.479 1.607-1.62 2.44-3.872 2.44-6.421h-3c0 1.89-.607 3.338-1.57 4.308-.961.969-2.405 1.592-4.33 1.592v3zm8.9-8.9v-3.08h-3v3.08h3zm0-3.08c0-2.55-.833-4.802-2.44-6.422-1.609-1.621-3.865-2.478-6.46-2.478v3c1.925 0 3.369.623 4.33 1.591.963.97 1.57 2.418 1.57 4.309h3zm-8.9-8.9c-.321 0-.401-.092-.404-.095-.01-.01-.096-.103-.096-.405h-3c0 .898.274 1.805.944 2.495.677.697 1.596 1.005 2.556 1.005v-3zm-.5-.5v-4h-3v4h3zm0-4c0-.302.086-.395.096-.405.003-.003.083-.095.404-.095v-3c-.96 0-1.879.308-2.556 1.005-.67.69-.944 1.597-.944 2.495h3zm.5-.5c.32 0 .401.092.404.095.01.01.096.103.096.405h3c0-.898-.274-1.805-.944-2.495-.677-.697-1.597-1.005-2.556-1.005v3zm.5.5v1.6h3v-1.6h-3zm1.5 3.1h5.4v-3h-5.4v3zm6.9-1.5v-1.6h-3v1.6h3zm0-1.6c0-2.55-.833-4.802-2.44-6.422-1.609-1.621-3.865-2.478-6.46-2.478v3c1.925 0 3.369.623 4.33 1.591.963.97 1.57 2.418 1.57 4.309h3zm-8.9-8.9c-2.595 0-4.851.857-6.46 2.479-1.607 1.62-2.44 3.872-2.44 6.421h3c0-1.89.607-3.338 1.57-4.309.961-.968 2.405-1.591 4.33-1.591v-3zm-8.9 8.9v4h3v-4h-3zm0 4c0 2.55.833 4.802 2.44 6.421 1.609 1.622 3.865 2.479 6.46 2.479v-3c-1.925 0-3.369-.623-4.33-1.591-.963-.97-1.57-2.418-1.57-4.309h-3zm8.9 8.9c.32 0 .401.092.404.095.01.01.096.103.096.405h3c0-.898-.274-1.805-.944-2.495-.677-.697-1.597-1.005-2.556-1.005v3zm.5.5v3.08h3v-3.08h-3zm0 3.08c0 .302-.086.395-.096.405-.003.003-.084.095-.404.095v3c.959 0 1.879-.308 2.556-1.005.67-.69.944-1.597.944-2.495h-3zm-.5.5c-.321 0-.401-.092-.404-.095-.01-.01-.096-.103-.096-.405h-3c0 .898.274 1.805.944 2.495.677.697 1.596 1.005 2.556 1.005v-3zm-.5-.5v-1.6h-3v1.6h3zm-1.5-3.1h-5.4v3h5.4v-3zm-6.9 1.5v1.6h3v-1.6h-3zm0 1.6c0 2.55.833 4.802 2.44 6.421 1.609 1.622 3.865 2.479 6.46 2.479v-3c-1.925 0-3.369-.623-4.33-1.592-.963-.97-1.57-2.417-1.57-4.308h-3zM242.815 11V9.5h-1.155l-.295 1.116 1.45.384zm-5.52 20.84l-1.45.384 1.45 5.474 1.45-5.474-1.45-.384zM231.775 11l1.45-.384-.296-1.116h-1.154V11zm-4.8 0V9.5h-1.5V11h1.5zm0 30h-1.5v1.5h1.5V41zm5 0v1.5h1.5V41h-1.5zm0-12.84l1.444-.405-2.944.405h1.5zm3.6 12.84l-1.445.405.307 1.095h1.138V41zm3.44 0v1.5h1.137l.307-1.095-1.444-.405zm3.6-12.84h1.5l-2.945-.405 1.445.405zm0 12.84h-1.5v1.5h1.5V41zm5 0v1.5h1.5V41h-1.5zm0-30h1.5V9.5h-1.5V11zm-6.25-.384l-5.52 20.84 2.9.768 5.52-20.84-2.9-.768zm-2.62 20.84l-5.52-20.84-2.9.768 5.52 20.84 2.9-.768zM231.775 9.5h-4.8v3h4.8v-3zm-6.3 1.5v30h3V11h-3zm1.5 31.5h5v-3h-5v3zm6.5-1.5V28.16h-3V41h3zm-2.945-12.435l3.6 12.84 2.889-.81-3.6-12.84-2.889.81zm5.045 13.935h3.44v-3h-3.44v3zm4.884-1.095l3.6-12.84-2.889-.81-3.6 12.84 2.889.81zm.656-13.245V41h3V28.16h-3zm1.5 14.34h5v-3h-5v3zm6.5-1.5V11h-3v30h3zm-1.5-31.5h-4.8v3h4.8v-3zm16.404 1.5V9.5h-1.09l-.337 1.037 1.427.463zm-3.36 10.36l-1.422.478 1.447 4.307 1.402-4.322-1.427-.463zM257.179 11l1.422-.478-.343-1.022h-1.079V11zm-5.52 0V9.5h-2.181l.78 2.036 1.401-.536zm6.28 16.4h1.5v-.277l-.099-.26-1.401.537zm0 13.6h-1.5v1.5h1.5V41zm5.4 0v1.5h1.5V41h-1.5zm0-13.6l-1.403-.53-.097.256v.274h1.5zm6.2-16.4l1.403.53.768-2.03h-2.171V11zm-6.947-.463l-3.36 10.36 2.854.926 3.36-10.36-2.854-.926zm-.511 10.345l-3.48-10.36-2.844.956 3.48 10.36 2.844-.956zM257.179 9.5h-5.52v3h5.52v-3zm-6.921 2.036l6.28 16.4 2.802-1.072-6.28-16.4-2.802 1.072zm6.181 15.864V41h3V27.4h-3zm1.5 15.1h5.4v-3h-5.4v3zm6.9-1.5V27.4h-3V41h3zm-.097-13.07l6.2-16.4-2.806-1.06-6.2 16.4 2.806 1.06zm4.797-18.43h-5.52v3h5.52v-3z"
        fill="#141414"/>
</svg>