<svg width="494" height="64" fill="none" xmlns="http://www.w3.org/2000/svg">
    <path
        d="M68.872 48.805c0 9.084-5.863 15.112-15.112 15.112-9.25 0-15.112-6.028-15.112-15.112V15.112C38.565 6.028 44.428 0 53.678 0 62.925 0 68.79 6.028 68.79 15.112v3.304H57.806v-3.304c0-2.477-1.486-4.129-4.129-4.129-2.642 0-4.129 1.652-4.129 4.13v33.692c0 2.478 1.487 4.13 4.13 4.13 2.642 0 4.128-1.652 4.128-4.13v-3.303h11.066v3.303zM106.694 15.112v33.693c0 9.084-5.863 15.112-15.112 15.112-9.249 0-15.112-6.028-15.112-15.112V15.112C76.47 6.028 82.333 0 91.582 0c9.249 0 15.112 6.028 15.112 15.112zm-19.159 0v20.645l6.524-24.03c-.66-.414-1.486-.661-2.477-.661-2.643 0-4.046 1.651-4.046 4.046zm8.176 33.693V28.408l-6.524 23.865c.66.413 1.487.661 2.478.661 2.56 0 4.046-1.651 4.046-4.129zM117.512 1.321h15.112c9.25 0 15.113 6.029 15.113 15.112v31.05c0 9.085-5.863 15.113-15.113 15.113h-15.112V1.321zm15.112 50.292c2.643 0 4.13-1.652 4.13-4.13v-31.05c0-2.477-1.487-4.128-4.13-4.128h-4.129V51.53h4.129v.083zM155.086 42.529c0-3.881 1.074-7.102 2.973-9.58-1.899-2.56-2.973-5.78-2.973-9.661v-8.176C155.086 6.028 160.95 0 170.199 0c9.249 0 15.112 6.028 15.112 15.112v3.304h-11.066v-3.304c0-2.477-1.486-4.129-4.129-4.129-2.642 0-4.129 1.652-4.129 4.13v8.175c0 2.477 1.487 4.129 4.129 4.129h6.359v11.066h-6.359c-2.642 0-4.129 1.651-4.129 4.129v6.276c0 2.477 1.487 4.129 4.129 4.129 2.643 0 4.129-1.652 4.129-4.13v-3.303h11.066v3.304c0 9.084-5.863 15.112-15.112 15.112-9.249 0-15.113-6.028-15.113-15.112v-6.359z"
        fill="#0053FF"/>
    <path
        d="M226.106 42.199v5.285c0 9.084-5.863 15.112-15.112 15.112h-15.938V1.321h15.112c9.249 0 15.112 6.029 15.112 15.112v6.524c0 3.469-.908 6.607-2.56 9.084 2.23 2.643 3.386 6.029 3.386 10.158zm-19.985-15.113h4.047c2.642 0 4.046-1.651 4.046-4.046v-6.524c0-2.477-1.486-4.046-4.046-4.046h-4.047v14.616zm9.002 15.113c0-2.478-1.487-4.047-4.047-4.047h-4.872v13.46h4.872c2.643 0 4.047-1.65 4.047-4.046V42.2zM266.405 26.26c0 4.542-1.486 8.341-4.129 10.984 2.725 1.9 4.129 4.624 4.129 8.175v17.177h-10.983V45.42c0-2.477-1.487-4.046-4.047-4.046h-4.046v21.223h-11.148V1.321h15.112c9.249 0 15.112 6.029 15.112 15.112v9.828zm-10.983-9.827c0-2.477-1.487-4.046-4.047-4.046h-4.046v17.92h4.046c2.643 0 4.047-1.652 4.047-4.046v-9.828zM276.48 48.805V15.112C276.48 6.028 282.343 0 291.592 0c9.249 0 15.112 6.028 15.112 15.112v33.61c0 9.084-5.863 15.113-15.112 15.113-9.249 0-15.112-6.029-15.112-15.03zm19.159 0V15.112c0-2.477-1.487-4.046-4.047-4.046-2.56 0-4.046 1.651-4.046 4.046v33.61c0 2.478 1.486 4.047 4.046 4.047 2.56 0 4.047-1.569 4.047-3.964zM321.569 12.387h-9.001V1.321h28.986v11.066h-9.002v50.21h-10.983v-50.21zM348.325 1.321h10.983V31.96h6.524V1.32h10.983v61.193h-10.983V42.942h-6.524v19.572h-10.983V1.32zM414.142 12.387h-14.287v12.222h12.057v10.983h-12.057V51.53h14.287v10.983h-25.27V1.322h25.27v11.066zM453.946 26.26c0 4.542-1.487 8.341-4.129 10.984 2.725 1.9 4.129 4.624 4.129 8.175v17.177h-10.983V45.42c0-2.477-1.487-4.046-4.047-4.046h-4.046v21.223h-10.984V1.321h15.113c9.249 0 15.112 6.029 15.112 15.112v9.828h-.165zm-11.066-9.827c0-2.477-1.486-4.046-4.046-4.046h-4.047v17.92h4.047c2.642 0 4.046-1.652 4.046-4.046v-9.828zM462.947 48.805v-3.303h10.983v3.303c0 2.478 1.487 4.047 4.047 4.047 2.56 0 4.046-1.652 4.046-4.047V42.53c0-2.477-1.486-4.046-4.046-4.046-9.249 0-15.112-6.029-15.112-15.113v-8.175c0-9.084 5.863-15.112 15.112-15.112 9.249 0 15.112 6.028 15.112 15.112v3.303h-10.983v-3.303c0-2.478-1.487-4.047-4.047-4.047-2.56 0-4.046 1.652-4.046 4.047v8.175c0 2.478 1.486 4.047 4.046 4.047 9.25 0 15.113 6.028 15.113 15.112v6.276c0 9.084-5.863 15.112-15.113 15.112-9.249 0-15.112-6.11-15.112-15.112zM4.377 48.64v3.551H0V40.63h4.377v3.55H24.36v4.377H4.377v.083zM0 37.987V33.61h12.222v-2.56H0v-4.376h24.361v4.376h-7.845v2.56h7.845v4.377H0zM4.377 11.726v5.698h4.872v-4.79h4.377v4.79h6.359v-5.697h4.376V21.8H0V11.727h4.377z"
        fill="#141414"/>
</svg>