<svg width="382" height="445" fill="none" xmlns="http://www.w3.org/2000/svg">
    <rect x="111.085" y="306.84" width="176" height="94" rx="8" transform="rotate(15.446 111.085 306.84)"
          fill="#F0F0F0"/>
    <path
        d="M296.703 365.646l.076-11.012c.008-1.026-.574-1.666-1.67-1.695l-2.822-.026.077-7.517 2.821.026c1.032.011 1.692-.629 1.699-1.655l.123-10.93c.045-6.156 4.138-10.233 10.457-10.131l3.917.054-.076 7.517-3.917-.054c-1.79-.015-2.783 1.081-2.82 2.715l-.123 10.931c.02 1.924-1.126 4.074-2.655 5.365 1.548 1.387 2.594 3.595 2.55 5.502l-.077 11.011c-.037 1.635.952 2.799 2.741 2.814l3.918.054-.077 7.517-3.917-.054c-6.319-.102-10.27-4.277-10.225-10.432z"
        fill="#0053FF"/>
    <rect x="149.068" y="15.431" width="205" height="368" rx="23" transform="rotate(15.446 149.068 15.43)"
          fill="#0053FF"/>
    <rect x="205.312" y="3.193" width="203" height="366" rx="22" transform="rotate(30.446 205.312 3.193)"
          stroke="#141414" stroke-width="2"/>
    <path
        d="M155.207 42.026c1.618-5.855 7.676-9.29 13.532-7.673l151.33 41.814c5.855 1.618 9.291 7.677 7.673 13.533L252.37 362.478 79.835 314.805l75.372-272.779z"
        fill="#fff"/>
    <circle cx="157.713" cy="369.004" r="13.5" transform="rotate(15.446 157.713 369.004)" fill="#fff"/>
    <path d="M298.938 100.074l-22.714 16.89-5.575-4.621 11.899-25.794 5.24 4.282-7.858 15.82 13.8-10.974 5.208 4.397z"
          fill="#141414"/>
    <path
        d="M104.345 13.75l3.334 5.456 3.315-2.018 3.09 5.12-3.314 2.019 4.683 7.629-5.162 3.108-4.667-7.691-2.882 1.67 4.729 7.709-5.162 3.107-4.73-7.708-3.376 2.001-3.108-5.06 3.377-2-3.334-5.455-3.377 2-3.09-5.121 3.377-2-3.215-5.157 5.162-3.108 3.136 5.2 2.882-1.67-3.118-5.262 5.162-3.108 3.198 5.218 3.315-2.018 3.09 5.12-3.315 2.019zm-5.162 3.108l-2.883 1.67 3.335 5.456 2.882-1.67-3.334-5.456z"
        fill="#0053FF"/>
    <path
        d="M29.256 360.021l-7.274 5.579 5.32 6.989-6.465 4.905-5.32-6.989-7.175 5.468-5.07-6.644 7.174-5.468-5.164-6.808 6.402-4.923 5.228 6.825 7.274-5.578 5.07 6.644z"
        fill="#141414"/>
    <path fill="#0053FF" d="M312.603 279.658l31.014-11.277 2.05 5.64-31.014 11.276z"/>
    <rect x="149.728" y="106.911" width="46" height="46" rx="8" transform="rotate(15.446 149.728 106.911)"
          fill="#F0F0F0"/>
    <rect opacity=".5" x="187.396" y="173.342" width="46" height="46" rx="8" transform="rotate(15.446 187.396 173.342)"
          fill="#F0F0F0"/>
    <rect x="253.827" y="135.674" width="46" height="46" rx="8" transform="rotate(15.446 253.827 135.674)"
          fill="#F0F0F0"/>
    <rect opacity=".5" x="120.964" y="211.01" width="46" height="46" rx="8" transform="rotate(15.446 120.964 211.01)"
          fill="#F0F0F0"/>
    <rect opacity=".3" x="106.583" y="263.059" width="46" height="46" rx="8" transform="rotate(15.446 106.583 263.059)"
          fill="#F0F0F0"/>
    <rect opacity=".3" x="164.11" y="54.861" width="46" height="46" rx="8" transform="rotate(15.446 164.11 54.861)"
          fill="#F0F0F0"/>
    <rect opacity=".5" x="225.063" y="239.774" width="46" height="46" rx="8" transform="rotate(15.446 225.063 239.774)"
          fill="#F0F0F0"/>
</svg>